HIERARCHY
ROOT Hips
{
	OFFSET 0.00000 0.00000 0.00000
	CHANNELS 6 Xposition Yposition Zposition Zrotation Yrotation Xrotation 
	JOINT LHipJoint
	{
		OFFSET 0 0 0
		CHANNELS 3 Zrotation Yrotation Xrotation
		JOINT LeftHip
		{
			OFFSET 1.57358 -1.76629 0.73362
			CHANNELS 3 Zrotation Yrotation Xrotation
			JOINT LeftKnee
			{
				OFFSET 2.40600 -6.61045 0.00000
				CHANNELS 3 Zrotation Yrotation Xrotation
				JOINT LeftAnkle
				{
					OFFSET 2.66168 -7.31291 0.00000
					CHANNELS 3 Zrotation Yrotation Xrotation
					JOINT LeftToe
					{
						OFFSET 0.20870 -0.57341 2.12506
						CHANNELS 3 Zrotation Yrotation Xrotation
						End Site
						{
							OFFSET 0.00000 -0.00000 1.10557
						}
					}
				}
			}
		}
	}
	JOINT RHipJoint
	{
		OFFSET 0 0 0
		CHANNELS 3 Zrotation Yrotation Xrotation
		JOINT RightHip
		{
			OFFSET -1.49299 -1.76629 0.73362
			CHANNELS 3 Zrotation Yrotation Xrotation
			JOINT RightKnee
			{
				OFFSET -2.43663 -6.69460 0.00000
				CHANNELS 3 Zrotation Yrotation Xrotation
				JOINT RightAnkle
				{
					OFFSET -2.62959 -7.22474 0.00000
					CHANNELS 3 Zrotation Yrotation Xrotation
					JOINT RightToe
					{
						OFFSET -0.25784 -0.70841 2.21862
						CHANNELS 3 Zrotation Yrotation Xrotation
						End Site
						{
							OFFSET -0.00000 -0.00000 1.16452
						}
					}
				}
			}
		}
	}
	JOINT lowerback
	{
		OFFSET 0 0 0
		CHANNELS 3 Zrotation Yrotation Xrotation
		JOINT Chest
		{
			OFFSET -0.00034 2.12399 -0.25450
			CHANNELS 3 Zrotation Yrotation Xrotation
			JOINT Chest2
			{
				OFFSET 0.05594 2.14379 -0.03318
				CHANNELS 3 Zrotation Yrotation Xrotation
				JOINT lowerneck
				{
					OFFSET 0 0 0
					CHANNELS 3 Zrotation Yrotation Xrotation
					JOINT Neck
					{
						OFFSET -0.09835 1.62725 0.24211
						CHANNELS 3 Zrotation Yrotation Xrotation
						JOINT Head
						{
							OFFSET 0.10849 1.66041 -0.22648
							CHANNELS 3 Zrotation Yrotation Xrotation
							End Site
							{
								OFFSET 0.04385 1.68267 -0.10541
							}
						}
					}
				}
				JOINT LeftCollar
				{
					OFFSET 0 0 0
					CHANNELS 3 Zrotation Yrotation Xrotation
					JOINT LeftShoulder
					{
						OFFSET 3.29108 0.79398 -0.68179
CHANNELS 3 Zrotation Xrotation Yrotation
						JOINT LeftElbow
						{
OFFSET 0 -5.153100 -0.000000
CHANNELS 3 Zrotation Xrotation Yrotation
							JOINT LeftWrist
							{
OFFSET 0 -3.751380 -0.000000
CHANNELS 3 Zrotation Xrotation Yrotation
								JOINT lhand
								{
									OFFSET 0 0 0
CHANNELS 3 Zrotation Xrotation Yrotation
									JOINT LFingers
									{
OFFSET 0 -0.529170 0.000000
CHANNELS 3 Zrotation Xrotation Yrotation
										End Site
										{
OFFSET 0 -0.426630 0.000000
										}
									}
								}
								JOINT LThumb
								{
OFFSET 0 0.000000 0.000000
CHANNELS 3 Zrotation Xrotation Yrotation
									End Site
									{
OFFSET 0 -0.433150 0.433150
									}
								}
							}
						}
					}
				}
				JOINT RightCollar
				{
					OFFSET 0 0 0
					CHANNELS 3 Zrotation Yrotation Xrotation
					JOINT RightShoulder
					{
						OFFSET -3.07414 1.06285 -0.44338
CHANNELS 3 Zrotation Xrotation Yrotation
						JOINT RightElbow
						{
OFFSET 0 -5.296130 0.000000
CHANNELS 3 Zrotation Xrotation Yrotation
							JOINT RightWrist
							{
OFFSET 0 -3.761440 -0.000000
CHANNELS 3 Zrotation Xrotation Yrotation
								JOINT rhand
								{
									OFFSET 0 0 0
CHANNELS 3 Zrotation Xrotation Yrotation
									JOINT RFingers
									{
OFFSET 0 -0.747320 0.000000
CHANNELS 3 Zrotation Xrotation Yrotation
										End Site
										{
OFFSET 0 -0.602510 0.000000
										}
									}
								}
								JOINT RThumb
								{
OFFSET 0 0.000000 0.000000
CHANNELS 3 Zrotation Xrotation Yrotation
									End Site
									{
OFFSET 0 -0.611710 0.611710
									}
								}
							}
						}
					}
				}
			}
		}
	}
}
MOTION
Frames: 10
Frame Time: 0.008333333333333333
14.184200 16.969800 -31.483100 1.077700 -2.746600 -1.540500 0.000000 0.000000 0.000000 -21.363400 -1.342000 2.733100 14.329800 19.211000 73.209200 1.197400 0.936000 20.401700 0.502800 4.545600 12.617000 0.000000 0.000000 0.000000 24.134800 8.795200 -24.401700 -4.731500 -13.074900 39.649400 -0.122400 -6.890000 -12.333000 -0.003400 -0.378400 1.039600 -1.176700 -0.304700 11.693500 3.071600 -0.365400 0.251600 3.971100 -0.096800 -6.278400 -8.982600 -2.683800 -15.879800 4.302200 -2.335300 16.572500 2.637800 -1.261300 7.903000 -0.000000 0.000000 0.000000 -0.778800 11.173900 -39.149800 116.450700 -57.183900 82.690400 19.082700 -13.655300 -5.629600 0.000000 0.000000 0.000000 -7.125000 0.000000 0.000000 -6.381400 35.873200 -1.438800 -0.000000 0.000000 0.000000 -8.460100 22.228100 40.530000 -138.304000 -49.043200 -100.289300 -5.805800 -13.763300 -21.992000 0.000000 0.000000 0.000000 7.125000 0.000000 -0.000000 14.446900 8.438900 12.588100
14.181548 16.946353 -31.351734 0.753139 -2.734667 -1.596501 0.000000 0.000000 0.000000 -20.735423 -1.405817 1.901043 14.744450 19.315814 74.459536 1.104868 0.731536 19.611652 0.412257 4.067203 11.272945 0.000000 0.000000 0.000000 24.540553 8.749108 -24.177243 -4.883871 -13.247892 40.310524 -0.158059 -6.983963 -13.015826 -0.002318 -0.209490 0.575543 -0.805594 -0.277520 11.774727 3.119750 -0.278764 0.397167 3.795177 -0.067072 -6.177075 -8.924855 -2.757107 -16.379551 4.319820 -2.409444 16.774068 2.625065 -1.288585 8.063152 0.000000 0.000000 0.000000 -0.897326 10.967168 -39.048789 115.682773 -57.348972 82.043268 19.163788 -14.016357 -5.780750 0.000000 0.000000 0.000000 -7.125000 0.000000 0.000000 -6.331086 36.036318 -1.402373 0.000000 0.000000 0.000000 -8.570671 21.286518 40.575533 -137.770893 -49.331020 -99.884175 -5.899239 -14.089047 -22.027659 0.000000 0.000000 0.000000 7.125000 0.000000 0.000000 14.388701 8.396821 12.546195
14.178896 16.922906 -31.220367 0.428579 -2.722734 -1.652502 0.000000 0.000000 0.000000 -20.107446 -1.469633 1.068985 15.159101 19.420628 75.709873 1.012336 0.527072 18.821604 0.321713 3.588806 9.928890 0.000000 0.000000 0.000000 24.946306 8.703017 -23.952786 -5.036242 -13.420884 40.971648 -0.193718 -7.077926 -13.698653 -0.001237 -0.040581 0.111486 -0.434488 -0.250339 11.855955 3.167901 -0.192129 0.542735 3.619254 -0.037345 -6.075750 -8.867109 -2.830414 -16.879302 4.337440 -2.483589 16.975636 2.612329 -1.315870 8.223304 0.000000 0.000000 0.000000 -1.015853 10.760436 -38.947778 114.914847 -57.514043 81.396135 19.244876 -14.377414 -5.931900 0.000000 0.000000 0.000000 -7.125000 0.000000 0.000000 -6.280773 36.199435 -1.365947 0.000000 0.000000 0.000000 -8.681242 20.344937 40.621067 -137.237786 -49.618840 -99.479050 -5.992679 -14.414794 -22.063318 0.000000 0.000000 0.000000 7.125000 0.000000 0.000000 14.330502 8.354742 12.504291
14.176245 16.899482 -31.089370 0.106940 -2.710834 -1.703370 0.000000 0.000000 0.000000 -19.481858 -1.533931 0.226570 15.569960 19.521375 76.946831 0.910697 0.276401 17.919804 0.239462 2.905181 8.021853 0.000000 0.000000 0.000000 25.348151 8.655995 -23.727147 -5.185991 -13.589664 41.618935 -0.229877 -7.165634 -14.369938 -0.000688 0.128792 -0.353856 -0.079523 -0.228291 11.933363 3.225152 -0.113660 0.676312 3.463731 -0.010693 -5.984265 -8.821251 -2.889389 -17.338179 4.358931 -2.539610 17.168846 2.605236 -1.335265 8.372461 0.000000 0.000000 0.000000 -1.154909 10.575038 -38.824433 114.132256 -57.679461 80.736125 19.334363 -14.734549 -6.085826 0.000000 0.000000 0.000000 -7.125000 0.000000 0.000000 -6.223728 36.366040 -1.327795 0.000000 0.000000 0.000000 -8.819888 19.425292 40.694605 -136.704090 -49.904766 -99.072826 -6.105830 -14.747632 -22.102595 0.000000 0.000000 0.000000 7.125000 0.000000 0.000000 14.260093 8.307460 12.452457
14.173593 16.876210 -30.960760 -0.195814 -2.699145 -1.721060 0.000000 0.000000 0.000000 -18.871710 -1.601341 -0.682807 15.956314 19.595834 78.097308 0.750197 -0.272966 16.295605 0.210816 0.894908 2.475537 0.000000 0.000000 0.000000 25.724735 8.602960 -23.493862 -5.318788 -13.731219 42.176780 -0.269270 -7.212912 -14.966617 -0.003584 0.301156 -0.827508 0.171102 -0.239422 11.986084 3.341236 -0.087979 0.732382 3.440074 -0.003924 -5.956387 -8.852235 -2.855719 -17.532838 4.405441 -2.478480 17.308029 2.634615 -1.303653 8.450549 0.000000 0.000000 0.000000 -1.426679 10.527551 -38.556711 113.254875 -57.847114 79.992866 19.478151 -15.066333 -6.257702 0.000000 0.000000 0.000000 -7.125000 0.000000 0.000000 -6.123171 36.555187 -1.278493 0.000000 0.000000 0.000000 -9.140018 18.647456 40.949173 -136.166587 -50.178455 -98.659502 -6.346407 -15.126309 -22.165260 0.000000 0.000000 0.000000 7.125000 0.000000 0.000000 14.110758 8.226547 12.336443
14.170941 16.852937 -30.832150 -0.498567 -2.687457 -1.738750 0.000000 0.000000 0.000000 -18.261563 -1.668752 -1.592184 16.342667 19.670292 79.247785 0.589696 -0.822332 14.671407 0.182170 -1.115365 -3.070778 0.000000 0.000000 0.000000 26.101319 8.549925 -23.260578 -5.451585 -13.872774 42.734625 -0.308662 -7.260190 -15.563296 -0.006480 0.473520 -1.301160 0.421728 -0.250552 12.038805 3.457320 -0.062299 0.788453 3.416418 0.002845 -5.928509 -8.883218 -2.822049 -17.727498 4.451952 -2.417351 17.447211 2.663993 -1.272042 8.528636 0.000000 0.000000 0.000000 -1.698449 10.480063 -38.288988 112.377493 -58.014768 79.249608 19.621939 -15.398116 -6.429577 0.000000 0.000000 0.000000 -7.125000 0.000000 0.000000 -6.022614 36.744334 -1.229192 0.000000 0.000000 0.000000 -9.460147 17.869621 41.203741 -135.629083 -50.452144 -98.246177 -6.586984 -15.504986 -22.227926 0.000000 0.000000 0.000000 7.125000 0.000000 0.000000 13.961422 8.145633 12.220429
14.168505 16.830057 -30.703671 -0.765598 -2.648983 -1.748054 0.000000 0.000000 0.000000 -17.700114 -1.766537 -2.511330 16.720158 19.737973 80.369458 0.465375 -1.234045 13.389724 0.158395 -2.563441 -7.065698 0.000000 0.000000 0.000000 26.432720 8.470311 -23.035791 -5.582017 -14.009907 43.278812 -0.350832 -7.276270 -16.147402 -0.009114 0.615219 -1.690568 0.638211 -0.269676 12.057001 3.565719 -0.053120 0.836979 3.406336 0.002350 -5.888336 -8.914361 -2.802561 -17.820133 4.481765 -2.380341 17.493595 2.684070 -1.253238 8.558866 0.000000 0.000000 0.000000 -1.975061 10.417777 -38.011057 111.464025 -58.182253 78.474572 19.738699 -15.749971 -6.639709 0.000000 0.000000 0.000000 -7.125000 0.000000 0.000000 -5.949533 36.972400 -1.180086 0.000000 0.000000 0.000000 -9.789616 17.106294 41.462760 -135.079426 -50.727282 -97.822130 -6.822727 -15.875932 -22.368533 0.000000 0.000000 0.000000 7.125000 0.000000 0.000000 13.815415 7.988816 12.127871
14.166655 16.808250 -30.575549 -0.935031 -2.537331 -1.734446 0.000000 0.000000 0.000000 -17.271716 -1.947310 -3.457169 17.073434 19.787135 81.412434 0.439905 -1.269669 13.043845 0.147928 -2.475514 -6.821981 0.000000 0.000000 0.000000 26.640673 8.318079 -22.834223 -5.705986 -14.134958 43.785680 -0.400587 -7.207116 -16.697152 -0.011033 0.673139 -1.849813 0.761413 -0.310638 11.980867 3.653122 -0.089023 0.864892 3.433342 -0.017992 -5.814576 -8.945938 -2.821821 -17.634022 4.465959 -2.409231 17.286445 2.678731 -1.269428 8.458343 0.000000 0.000000 0.000000 -2.264905 10.315056 -37.705233 110.451963 -58.349279 77.612718 19.781616 -16.156666 -6.954360 0.000000 0.000000 0.000000 -7.125000 0.000000 0.000000 -5.951522 37.306800 -1.131517 0.000000 0.000000 0.000000 -10.144602 16.382610 41.733936 -134.496564 -51.006379 -97.368784 -7.045265 -16.225754 -22.722088 0.000000 0.000000 0.000000 7.125000 0.000000 0.000000 13.678501 7.624619 12.099400
14.164806 16.786443 -30.447428 -1.104464 -2.425678 -1.720839 0.000000 0.000000 0.000000 -16.843319 -2.128082 -4.403007 17.426710 19.836297 82.455410 0.414434 -1.305294 12.697966 0.137460 -2.387588 -6.578264 0.000000 0.000000 0.000000 26.848626 8.165848 -22.632655 -5.829956 -14.260009 44.292549 -0.450342 -7.137961 -17.246902 -0.012952 0.731059 -2.009058 0.884615 -0.351601 11.904734 3.740525 -0.124927 0.892806 3.460348 -0.038334 -5.740815 -8.977514 -2.841081 -17.447911 4.450153 -2.438121 17.079294 2.673393 -1.285617 8.357821 0.000000 0.000000 0.000000 -2.554749 10.212336 -37.399409 109.439901 -58.516304 76.750863 19.824532 -16.563361 -7.269011 0.000000 0.000000 0.000000 -7.125000 0.000000 0.000000 -5.953511 37.641200 -1.082948 0.000000 0.000000 0.000000 -10.499588 15.658926 42.005113 -133.913702 -51.285476 -96.915439 -7.267803 -16.575576 -23.075643 0.000000 0.000000 0.000000 7.125000 0.000000 0.000000 13.541586 7.260421 12.070928
14.162915 16.765491 -30.319096 -1.220595 -2.298389 -1.704006 0.000000 0.000000 0.000000 -16.478209 -2.318882 -5.358606 17.761686 19.877157 83.442377 0.384097 -1.417485 12.298559 0.131200 -2.334958 -6.432374 0.000000 0.000000 0.000000 27.000037 7.994769 -22.416755 -5.944473 -14.373659 44.757221 -0.500476 -7.069016 -17.778240 -0.013160 0.736391 -2.023722 0.965999 -0.385622 11.803008 3.800443 -0.159792 0.918391 3.481128 -0.057498 -5.655219 -8.988126 -2.858364 -17.246612 4.430912 -2.471050 16.890794 2.663399 -1.303153 8.261099 0.000000 0.000000 0.000000 -2.785329 10.293041 -37.109740 108.668577 -58.640503 76.093540 19.801904 -17.084894 -7.460131 0.000000 0.000000 0.000000 -7.125000 0.000000 0.000000 -5.996083 37.841074 -1.061318 0.000000 0.000000 0.000000 -10.813261 14.939981 42.258985 -133.390677 -51.531338 -96.507348 -7.469853 -16.868954 -23.238243 0.000000 0.000000 0.000000 7.125000 0.000000 0.000000 13.416999 7.083941 12.002560
